<?xml version="1.0" encoding="utf-8"?>
<!-- Generator: Adobe Illustrator 19.1.0, SVG Export Plug-In . SVG Version: 6.00 Build 0)  -->
<svg version="1.1" id="Layer_1" xmlns="http://www.w3.org/2000/svg" xmlns:xlink="http://www.w3.org/1999/xlink" x="0px" y="0px"
	 viewBox="192 -192 512 512" style="enable-background:new 192 -192 512 512;" xml:space="preserve">
<style type="text/css">
	.st0{fill:#F4DE3B;}
	.st1{fill:#E0C734;}
	.st2{fill:#9AD14B;}
	.st3{fill:#90BC42;}
	.st4{fill:#7DA032;}
	.st5{fill:#FFFFFF;}
	.st6{fill:#333333;}
</style>
<g>
	<path class="st0" d="M531.8,139.9L531.8,139.9l-178.3,18.6l18.6-178.3c38.8-35.1,77.9-64.2,114.2-85.8
		c72.6-43.3,134.4-57.2,161.4-30.1c27.1,27.1,13.2,88.8-30.1,161.4C595.9,62.1,566.8,101.1,531.8,139.9z"/>
	<path class="st1" d="M409.1,48.7C501.3-43.4,601.9-99.4,661.6-96.9c-0.2-16.3-4.6-29.6-13.9-38.8c-27.1-27.1-88.8-13.2-161.4,30.1
		c-36.3,21.7-75.4,50.8-114.2,85.8l-12.9,123.4C374.4,85.2,391,66.8,409.1,48.7z"/>
	<path class="st2" d="M692.9,123.2L286.1,303.6c-17.6,7.8-35.4,6.4-49.9-1c-26-13.1-41.7-45.1-27.7-76.7l180.4-406.8l-8.2,79.1
		l-8.5,82l-3.2,31.2l-15.3,147.1l178.3-18.6l82-8.5L692.9,123.2z"/>
	<path class="st3" d="M236.1,302.6c-26-13.1-41.7-45.1-27.7-76.7l180.4-406.8l-8.2,79.1l-8.5,82l-3.2,31.2
		C305.5,98.2,218.2,234,236.1,302.6z"/>
	<g>
		<path class="st4" d="M486.2-105.7l0.1,0.1c-36.3,21.7-75.4,50.8-114.2,85.8l8.5-82l98.4-70L486.2-105.7z"/>
		<path class="st4" d="M683.8,33l-70,98.4l-82,8.5l0,0c35-38.8,64.1-77.9,85.8-114.2l0.1,0.1L683.8,33z"/>
	</g>
	<g>
		<path class="st5" d="M512,105.1c-4.1-4.1-4.4-10.6-0.6-15.1c25.4-29.8,47.8-60.6,64.7-89c6-10.1,11.4-20,16.1-29.4
			c2.7-5.5,9.4-7.8,14.9-5c5.5,2.7,7.8,9.4,5,14.9c-4.9,10-10.6,20.4-16.9,30.9c-17.6,29.4-40.7,61.3-66.9,92
			c-4,4.7-11,5.2-15.7,1.3C512.4,105.5,512.2,105.3,512,105.1z"/>
		<circle class="st5" cx="616.5" cy="-57" r="11.1"/>
	</g>
	<g>
		<path class="st6" d="M703.6,120.3c-1.4-5.3-6.5-8.8-11.9-8.2l-54.6,5.7l55.7-78.3c2.3-3.2,2.7-7.4,1.1-11c-1.6-3.6-5-6.1-9-6.5
			l-49.3-5.3c7.3-13.2,13.7-26.1,18.9-38.5c30.2-71.1,17.2-105.4,1-121.7c-16.2-16.2-50.5-29.2-121.7,1
			c-12.4,5.3-25.3,11.6-38.5,18.9l-5.3-49.2c-0.4-3.9-2.9-7.3-6.5-9c-3.6-1.6-7.8-1.2-11,1.1l-78.3,55.7l5.7-54.6
			c0.6-5.5-2.9-10.5-8.2-11.9c-5.3-1.4-10.8,1.2-13.1,6.2L198.2,221.4c-12,27.1-6.5,56.9,14.5,77.8c0,0,0,0,0,0
			c20.9,20.9,50.8,26.5,77.8,14.5l406.8-180.4C702.4,131.1,705,125.6,703.6,120.3z M663.7,42l-56.1,78.8l-48.8,5.1
			c25-29.6,46.9-59.5,64.6-88.3L663.7,42z M542.6-122.1c45.9-19.5,81.3-21.6,97.2-5.7c15.9,15.9,13.8,51.3-5.7,97.2
			c-20.6,48.5-58.8,105.2-107.8,160L366,146l16.7-160.4C437.5-63.3,494.1-101.5,542.6-122.1z M470-151.7l4.4,40.3
			c-28.8,17.7-58.7,39.5-88.3,64.6l5.1-48.8L470-151.7z M281.5,293.4c-22.1,9.8-41.9,1.3-53.1-9.9c-11.2-11.2-19.7-31-9.9-53.1
			l151.9-342.4l-39.7,381.4l-0.3,2.2L281.5,293.4z M354,261.3l9.6-92.6l260.3-27.1L354,261.3z"/>
		<circle class="st6" cx="573.1" cy="-96.1" r="11.1"/>
		<circle class="st6" cx="532.1" cy="-55.1" r="11.1"/>
		<circle class="st6" cx="491.3" cy="-14.3" r="11.1"/>
		<circle class="st6" cx="450.3" cy="26.7" r="11.1"/>
		<circle class="st6" cx="409.1" cy="67.9" r="11.1"/>
		<circle class="st6" cx="399.6" cy="18.4" r="11.1"/>
		<circle class="st6" cx="440.6" cy="-22.6" r="11.1"/>
		<circle class="st6" cx="481.6" cy="-63.6" r="11.1"/>
		<circle class="st6" cx="538.9" cy="-0.4" r="11.1"/>
		<circle class="st6" cx="497.9" cy="40.6" r="11.1"/>
		<circle class="st6" cx="456.9" cy="81.6" r="11.1"/>
		<circle class="st6" cx="415.9" cy="122.5" r="11.1"/>
	</g>
</g>
</svg>
