<?xml version="1.0" encoding="utf-8"?>
<!-- Generator: Adobe Illustrator 19.1.0, SVG Export Plug-In . SVG Version: 6.00 Build 0)  -->
<svg version="1.1" id="Layer_1" xmlns="http://www.w3.org/2000/svg" xmlns:xlink="http://www.w3.org/1999/xlink" x="0px" y="0px"
	 viewBox="188 -187.6 503.6 503.6" style="enable-background:new 188 -187.6 503.6 503.6;" xml:space="preserve">
<style type="text/css">
	.st0{fill:#C6B87B;}
	.st1{fill:#EAE3C1;}
	.st2{fill:#FFFFFF;}
	.st3{fill:#C0DD80;}
</style>
<path class="st0" d="M651.7,109.5c-15.1-26.9-36.9-47.8-91.5-74.7C499,3.8,473-97.8,473-97.8c1.7,94,18.5,151.1,42,177.1l0.8,0.8
	c1.7,1.7,3.4,3.4,5,4.2c3.4,3.4,6.7,5.9,10.1,9.2c12.6,13.4,21.8,28.5,26.9,43.6c4.2,11.8,6.7,24.3,7.6,36.9c0,4.2,0,8.4,0,12.6
	c-0.8,16.8-5.9,32.7-14.3,48.7c-6.7,11.8-14.3,22.7-25.2,31.9c-1.7,1.7-4.2,3.4-5.9,5l-0.8,0.8C599.7,269.8,666,241.3,666,170
	C666,151.5,663.5,128.8,651.7,109.5"/>
<path class="st1" d="M629.1,109.5c-12.6-26.9-30.2-47.8-75.5-74.7C503.2,3.8,481.4-97.8,481.4-97.8c1.7,94,15.1,151.1,35.3,177.1
	c0,0,0,0.8,0.8,0.8c1.7,1.7,2.5,3.4,4.2,4.2c2.5,3.4,5.9,5.9,8.4,9.2c10.1,13.4,17.6,28.5,22.7,43.6c3.4,11.8,5.9,24.3,5.9,36.9
	c0,4.2,0,8.4,0,12.6c-0.8,16.8-5,32.7-11.8,48.7c-5,11.8-11.8,22.7-21,31.9c-1.7,1.7-3.4,3.4-5,5l-0.8,0.8
	c67.1-3.4,121.7-32.7,121.7-104.1C640.8,151.5,638.3,128.8,629.1,109.5"/>
<path class="st2" d="M227,109.5c15.1-26.9,36.9-47.8,91.5-74.7c61.3-31.1,87.3-132.6,87.3-132.6c-1.7,94-18.5,151.1-42,177.1
	l-0.8,0.8c-1.7,1.7-3.4,3.4-5,4.2c-3.4,3.4-6.7,5.9-10.1,9.2c-12.6,13.4-21.8,28.5-26.9,43.6c-4.2,11.8-6.7,24.3-7.6,36.9
	c0,4.2,0,8.4,0,12.6c0.8,16.8,5.9,32.7,14.3,48.7c6.7,11.8,14.3,22.7,25.2,31.9c1.7,1.7,4.2,3.4,5.9,5l0.8,0.8
	c-80.6-3.4-146.9-31.9-146.9-103.2C212.8,151.5,216.1,128.8,227,109.5"/>
<path class="st1" d="M249.7,109.5c12.6-26.9,30.2-47.8,75.5-74.7c51.2-31.1,72.2-132.6,72.2-132.6c-1.7,94-15.1,151.1-35.3,177.1
	c0,0,0,0.8-0.8,0.8c-1.7,1.7-2.5,3.4-4.2,4.2c-2.5,3.4-5.9,5.9-8.4,9.2c-10.1,13.4-17.6,28.5-22.7,43.6c-3.4,11.8-5.9,24.3-5.9,36.9
	c0,4.2,0,8.4,0,12.6c0.8,16.8,5,32.7,11.8,48.7c5,11.8,11.8,22.7,21,31.9c1.7,1.7,3.4,3.4,5,5l0.8,0.8
	c-67.1-3.4-121.7-32.7-121.7-104.1C238.8,151.5,240.5,128.8,249.7,109.5"/>
<path d="M518.3,281.6c-3.4,0-6.7-1.7-7.6-5c-1.7-3.4-0.8-6.7,2.5-9.2l0.8-0.8l2.5-2.5c0.8-0.8,2.5-1.7,3.4-2.5
	c9.2-9.2,17.6-19.3,23.5-30.2c7.6-14.3,11.8-29.4,13.4-45.3c0-4.2,0-7.6,0-11.8c-0.8-11.8-2.5-22.7-6.7-34.4
	c-5.9-15.1-14.3-29.4-25.2-41.1c-2.5-3.4-5.9-5.9-9.2-9.2c-1.7-1.7-3.4-3.4-5-5l-0.8-0.8c-27.7-30.2-42.8-93.2-44.5-182.1
	c0-4.2,3.4-7.6,7.6-8.4s8.4,2.5,9.2,5.9c0,0.8,26,98.2,83.1,126.7C624,55,645,76.8,660.1,103.6l0,0c12.6,21.8,15.1,47,15.1,64.6
	C674.4,237.9,619,278.2,518.3,281.6L518.3,281.6z M484.7-42.4c5.9,55.4,18.5,95.7,36.9,115.8c1.7,1.7,3.4,3.4,5,4.2
	c3.4,3.4,7.6,6.7,10.1,10.1c12.6,13.4,22.7,29.4,29.4,47c5,12.6,7.6,26,7.6,39.4c0,4.2,0,9.2,0,13.4c-0.8,18.5-6.7,35.3-15.1,52
	c-5,8.4-10.1,16.8-16.8,24.3c51.2-6.7,115.8-26.9,115.8-94c0-15.1-2.5-37.8-12.6-56.2c-13.4-23.5-32.7-43.6-88.1-71.3
	C523.3,24.7,499.8-11.3,484.7-42.4z"/>
<path d="M343.7,281.6h-0.8C283.3,274,204.4,254.7,204.4,170c0-17.6,2.5-42.8,15.1-64.6c15.1-26.9,36.1-48.7,94.8-78.1
	c28.5-14.3,50.4-37.8,63.8-70.5c1.7-4.2,5.9-5.9,10.1-5c4.2,0.8,6.7,5,5.9,9.2c-5.9,56.2-20.1,97.4-41.1,120l-0.8,0.8
	c-1.7,1.7-3.4,3.4-5,5c-25.2,21.8-40.3,52.9-41.1,85.6c-0.8,24.3,5.9,47.8,20.1,68c2.5,3.4,5,6.7,7.6,10.1s5.9,6.7,9.2,9.2
	c0.8,0.8,2.5,2.5,3.4,3.4c0.8,0.8,1.7,1.7,2.5,2.5l0,0c0,0,0.8,0,0.8,0.8c2.5,2.5,4.2,6.7,2.5,10.1
	C349.6,279.1,347.1,281.6,343.7,281.6z M369.7,2.9c-13.4,16.8-29.4,29.4-47.8,38.6c-54.6,27.7-74.7,47.8-88.1,72.2
	c-10.1,18.5-12.6,40.3-12.6,56.2c0,49.5,31.1,78.1,99,90.6c-3.4-3.4-5.9-7.6-8.4-10.9c-15.9-23.5-23.5-50.4-22.7-78.1
	c1.7-36.9,18.5-72.2,47-97.4c1.7-0.8,2.5-2.5,4.2-4.2l6.7,5l-5.9-5.9C352.9,55.8,363,33.1,369.7,2.9z"/>
<polygon class="st3" points="389,-179.2 389,-128.9 414.2,-128.9 431,-86.9 447.8,-112.1 473,-112.1 473,-179.2 "/>
<path class="st0" d="M520.8,84.3c-26.9-23.5-47-83.9-47.8-189.7v-6.7h-25.2L431-86.9l-16.8-42H389c0,8.4,0,13.4,0,15.9
	C389-2.1,368.9,56.6,341.2,81c-56.2,47.8-61.3,132.6-5,184.7c1.7,1.7,4.2,4.2,5.9,6.7c25.2,21.8,55.4,35.3,88.1,35.3
	s63-13.4,88.1-35.3c1.7-1.7,4.2-3.4,5.9-5C582.1,215.3,577,133,520.8,84.3"/>
<path class="st1" d="M501.5,84.3c-23.5-23.5-41.1-83.9-42-189.7v-7.6h-21.8l-15.1,26l-15.1-42h-21.8c0,8.4,0,13.4,0,15.9
	c0,110.8-17.6,169.5-42,193.9c-48.7,47.8-52.9,132.6-4.2,184.7c1.7,1.7,3.4,4.2,5,6.7c22.7,21.8,48.7,35.3,77.2,35.3
	c28.5,0,55.4-13.4,77.2-35.3c1.7-1.7,3.4-3.4,5-5C554.4,215.3,550.2,133,501.5,84.3"/>
<path d="M431,316c-32.7,0-64.6-12.6-94-37.8c-1.7-0.8-2.5-2.5-4.2-4.2c-0.8-0.8-1.7-1.7-2.5-2.5c-27.7-26-42.8-60.4-42-98.2
	s17.6-73.9,47-99.9c20.1-17.6,45.3-64.6,45.3-187.2c0-1.7,0-4.2,0-6.7v-8.4c0-5,3.4-8.4,8.4-8.4h25.2c3.4,0,6.7,1.7,7.6,5l10.9,26.9
	l7.6-11.8c2.5-1.7,5-3.4,7.6-3.4H473c4.2,0,8.4,3.4,8.4,8.4v7.6c1.7,126.7,28.5,168.7,44.5,183l0,0c29.4,26,47,61.3,47,99
	c0.8,36.1-14.3,70.5-42,96.5c-1.7,1.7-2.5,2.5-4.2,3.4l-2.5,1.7C496.5,303.4,463.7,316,431,316z M397.4-120.5L397.4-120.5
	c0,3.4,0,5.9,0,7.6c0,103.2-16.8,170.4-50.4,199.8c-26,22.7-41.1,54.6-41.1,87.3c-0.8,31.9,12.6,63,36.9,85.6
	c0.8,0.8,2.5,2.5,3.4,3.4c0.8,0.8,1.7,1.7,2.5,2.5c26,22.7,53.7,33.6,83.1,33.6s57.9-11.8,83.1-32.7l2.5-1.7
	c0.8-0.8,2.5-1.7,3.4-3.4c24.3-22.7,37.8-52.9,36.9-83.9c-0.8-32.7-15.9-63.8-42-86.5c-31.9-27.7-49.5-94.8-50.4-194.7h-12.6
	l-14.3,21.8c-1.7,2.5-5,4.2-7.6,3.4c-3.4,0-5.9-2.5-6.7-5l-15.9-36.9L397.4-120.5L397.4-120.5z"/>
<path d="M431-78.5h-0.8c-3.4,0-5.9-2.5-6.7-5l-15.1-36.9H389c-5,0-8.4-3.4-8.4-8.4v-50.4c0-5,3.4-8.4,8.4-8.4H473
	c5,0,8.4,3.4,8.4,8.4v67.1c0,5-3.4,8.4-8.4,8.4h-21l-14.3,21.8C436-80.2,433.5-78.5,431-78.5z M397.4-137.2h16.8
	c3.4,0,6.7,1.7,7.6,5l10.9,26.9l7.6-11.8c2.5-1.7,5-3.4,7.6-3.4h16.8v-50.4h-67.1L397.4-137.2L397.4-137.2z"/>
<path d="M431-28.1c-5,0-8.4-3.4-8.4-8.4v-50.4c0-5,3.4-8.4,8.4-8.4s8.4,3.4,8.4,8.4v50.4C439.4-32.3,436-28.1,431-28.1z"/>
<path d="M439.4-154c-5,0-8.4-3.4-8.4-8.4v-16.8c0-5,3.4-8.4,8.4-8.4c5,0,8.4,3.4,8.4,8.4v16.8C447.8-158.2,444.4-154,439.4-154z"/>
<path d="M347.1,192.6c-4.2,0-8.4-3.4-8.4-7.6c-2.5-31.9,14.3-55.4,31.1-78.9c3.4-5,6.7-9.2,10.1-14.3c16.8-25.2,27.7-54.6,34.4-90.6
	c0.8-4.2,5-7.6,10.1-6.7c4.2,0.8,7.6,5,6.7,10.1c-6.7,38.6-18.5,69.7-36.9,97.4c-3.4,5-6.7,10.1-10.1,15.1
	c-15.1,21.8-30.2,42-27.7,68C356.3,188.4,352.9,192.6,347.1,192.6C347.9,192.6,347.9,192.6,347.1,192.6z"/>
<path d="M429.3,268.2c-25.2,0-49.5-10.1-65.5-28.5c-3.4-3.4-2.5-8.4,0.8-11.8c3.4-3.4,8.4-2.5,11.8,0.8c15.9,16.8,40.3,25.2,63,21.8
	c4.2-0.8,9.2,2.5,9.2,7.6c0,5-2.5,9.2-7.6,9.2C437.7,268.2,433.5,268.2,429.3,268.2z"/>
<path d="M513.2,186.7L513.2,186.7c-5,0-8.4-4.2-8.4-8.4c0-9.2-0.8-18.5-4.2-27.7c-1.7-4.2,0.8-9.2,5-10.9c4.2-1.7,9.2,0.8,10.9,5
	c4.2,10.9,5.9,22.7,5,33.6C521.6,183.4,518.3,186.7,513.2,186.7z"/>
</svg>
