<?xml version="1.0" encoding="iso-8859-1"?>
<!-- Generator: Adobe Illustrator 19.0.0, SVG Export Plug-In . SVG Version: 6.00 Build 0)  -->
<svg version="1.1" id="Layer_1" xmlns="http://www.w3.org/2000/svg" xmlns:xlink="http://www.w3.org/1999/xlink" x="0px" y="0px"
	 viewBox="0 0 512 512" style="enable-background:new 0 0 512 512;" xml:space="preserve">
<path style="fill:#C2E7FF;" d="M499.867,92.209h-24.265l-18.199,24.265l-18.199-24.265V43.678c0-6.673-5.46-12.133-12.133-12.133
	H12.133C5.46,31.545,0,37.005,0,43.678v388.246c0,26.692,21.839,48.531,48.531,48.531h414.938c26.692,0,48.531-21.839,48.531-48.531
	V104.341C512,97.668,506.54,92.209,499.867,92.209z"/>
<path style="fill:#4EB9FF;" d="M475.602,92.209v321.517c0,10.046-8.153,18.199-18.199,18.199s-18.199-8.153-18.199-18.199V92.209
	H475.602z"/>
<g>
	<path style="fill:#174461;" d="M189.27,419.791H72.796c-6.701,0-12.133-5.432-12.133-12.133s5.432-12.133,12.133-12.133H189.27
		c6.701,0,12.133,5.432,12.133,12.133S195.971,419.791,189.27,419.791z"/>
	<path style="fill:#174461;" d="M366.408,419.791H249.934c-6.701,0-12.133-5.432-12.133-12.133s5.432-12.133,12.133-12.133h116.474
		c6.7,0,12.133,5.432,12.133,12.133S373.107,419.791,366.408,419.791z"/>
	<path style="fill:#174461;" d="M366.408,116.474H72.796c-6.701,0-12.133-5.432-12.133-12.133c0-6.701,5.432-12.133,12.133-12.133
		h293.611c6.7,0,12.133,5.432,12.133,12.133C378.54,111.042,373.107,116.474,366.408,116.474z"/>
	<path style="fill:#174461;" d="M366.408,177.137H249.934c-6.701,0-12.133-5.432-12.133-12.133s5.432-12.133,12.133-12.133h116.474
		c6.7,0,12.133,5.432,12.133,12.133S373.107,177.137,366.408,177.137z"/>
	<path style="fill:#174461;" d="M366.408,237.801H249.934c-6.701,0-12.133-5.432-12.133-12.133s5.432-12.133,12.133-12.133h116.474
		c6.7,0,12.133,5.432,12.133,12.133S373.107,237.801,366.408,237.801z"/>
	<path style="fill:#174461;" d="M366.408,298.464H249.934c-6.701,0-12.133-5.432-12.133-12.133c0-6.701,5.432-12.133,12.133-12.133
		h116.474c6.7,0,12.133,5.432,12.133,12.133C378.54,293.033,373.107,298.464,366.408,298.464z"/>
	<path style="fill:#174461;" d="M366.408,359.128H249.934c-6.701,0-12.133-5.432-12.133-12.133s5.432-12.133,12.133-12.133h116.474
		c6.7,0,12.133,5.432,12.133,12.133S373.107,359.128,366.408,359.128z"/>
	<path style="fill:#174461;" d="M189.27,359.128H72.796c-6.701,0-12.133-5.432-12.133-12.133s5.432-12.133,12.133-12.133H189.27
		c6.701,0,12.133,5.432,12.133,12.133S195.971,359.128,189.27,359.128z"/>
</g>
<rect x="72.796" y="165.005" style="fill:#4EB9FF;" width="116.474" height="122.54"/>
<g>
</g>
<g>
</g>
<g>
</g>
<g>
</g>
<g>
</g>
<g>
</g>
<g>
</g>
<g>
</g>
<g>
</g>
<g>
</g>
<g>
</g>
<g>
</g>
<g>
</g>
<g>
</g>
<g>
</g>
</svg>
