<?xml version="1.0" encoding="utf-8"?>
<!-- Generator: Adobe Illustrator 19.1.0, SVG Export Plug-In . SVG Version: 6.00 Build 0)  -->
<svg version="1.1" id="Layer_1" xmlns="http://www.w3.org/2000/svg" xmlns:xlink="http://www.w3.org/1999/xlink" x="0px" y="0px"
	 viewBox="192 -192 512 512" style="enable-background:new 192 -192 512 512;" xml:space="preserve">
<style type="text/css">
	.st0{fill:#C49A6C;}
	.st1{fill:#231F20;}
	.st2{fill:#FFFFFF;}
</style>
<g>
	<path class="st0" d="M545.3,103c4.9,51.7-14.1,107.7-56.5,150.1c-70.9,70.9-180,77-243.5,13.5S187.9,94.1,258.9,23.2
		c42.4-42.4,98.3-61.4,150.1-56.5c7.5-32.1,25.3-64.8,52.8-92.3c63.5-63.5,154.3-75.6,202.9-27.1c48.6,48.6,36.5,139.4-27.1,202.9
		C610.1,77.7,577.4,95.5,545.3,103z"/>
	<path class="st1" d="M543.8,184.9c8.8-24.1,12.8-49.8,11.6-74.6c32.5-9.2,63.1-27.5,89-53.3c32.2-32.2,52.9-72.1,58.3-112.5
		c5.5-41.3-5.6-78.2-31.2-103.8c-25.6-25.6-62.5-36.7-103.8-31.2c-40.4,5.4-80.3,26.1-112.5,58.3c-25.8,25.8-44.2,56.5-53.3,89
		c-24.8-1.2-50.4,2.8-74.6,11.6c-28.1,10.3-53.3,26.5-75,48.2c-74.6,74.6-80.6,189.8-13.5,257c67.1,67.1,182.4,61,256.9-13.5
		C517.3,238.2,533.5,212.9,543.8,184.9z M252.1,259.9c-59.7-59.7-53.6-162.9,13.5-230c39.1-39.1,91-58.6,142.4-53.7l8.3,0.8l1.9-8.1
		c7.4-31.5,25.2-62.7,50.3-87.7c59.7-59.7,144.6-71.8,189.4-27.1c44.8,44.8,32.6,129.7-27.1,189.4c-25.1,25.1-56.2,42.9-87.7,50.3
		l-8.1,1.9l0.8,8.3c4.9,51.5-14.7,103.4-53.7,142.4C415,313.5,311.8,319.6,252.1,259.9z"/>
	<path class="st2" d="M306.2,70.5L292.7,57c-52.2,52.2-58.3,131.1-13.5,175.8l13.5-13.5C255.4,182,261.4,115.2,306.2,70.5z"/>
	
		<rect x="296.7" y="236.8" transform="matrix(-0.7071 -0.7071 0.7071 -0.7071 348.57 637.0917)" class="st1" width="19.1" height="19.1"/>
	<g>
		
			<rect x="580.7" y="-141.9" transform="matrix(-0.7071 -0.7071 0.7071 -0.7071 1101.2767 191.4012)" class="st2" width="19.1" height="19.1"/>
		
			<rect x="553.7" y="-141.9" transform="matrix(-0.7071 -0.7071 0.7071 -0.7071 1055.0916 172.2758)" class="st2" width="19.1" height="19.1"/>
		
			<rect x="553.7" y="-114.9" transform="matrix(-0.7071 -0.7071 0.7071 -0.7071 1035.9636 218.4548)" class="st2" width="19.1" height="19.1"/>
	</g>
	<g>
		
			<rect x="425.2" y="203" transform="matrix(-0.7071 -0.7071 0.7071 -0.7071 591.8482 670.2053)" class="st1" width="19.1" height="19.1"/>
		
			<rect x="425.2" y="175.9" transform="matrix(-0.7071 -0.7071 0.7071 -0.7071 610.9761 624.0262)" class="st1" width="19.1" height="19.1"/>
	</g>
</g>
</svg>
