<?xml version="1.0" encoding="iso-8859-1"?>
<!-- Generator: Adobe Illustrator 19.0.0, SVG Export Plug-In . SVG Version: 6.00 Build 0)  -->
<svg version="1.1" id="Layer_1" xmlns="http://www.w3.org/2000/svg" xmlns:xlink="http://www.w3.org/1999/xlink" x="0px" y="0px"
	 viewBox="0 0 512 512" style="enable-background:new 0 0 512 512;" xml:space="preserve">
<path style="fill:none;stroke:#000000;stroke-width:15;stroke-linecap:round;stroke-linejoin:round;stroke-miterlimit:10;" d="
	M288.188,489.229c-3.064,8.654-16.309,15.164-32.186,15.164c-15.132,0-27.875-5.914-31.689-13.962"/>
<path style="fill:#B87FD9;" d="M314.826,316.742l0.001-0.001c-0.063-0.031-0.123-0.065-0.186-0.097
	c-15.372-8.076-27.143-19.99-35.961-32.095h-45.158c-8.835,12.096-20.704,24.027-36.349,32.193l0.002,0.002
	c-30.953,16.803-51.517,46.47-51.517,80.27c0,52.394,49.402,94.867,110.343,94.867s110.343-42.473,110.343-94.867
	C366.344,363.211,345.781,333.544,314.826,316.742z"/>
<path style="fill:#5EAC24;" d="M239.822,67.814c-1.404-4.978-5.307-8.861-10.292-10.241c-4.985-1.38-10.328-0.059-14.095,3.487
	c-8.638,8.133-19.034,17.752-21.845,20.122c-1.275,0.84-2.432,1.886-3.419,3.122c-3.808,4.769-4.298,11.388-1.231,16.666
	c27.431,47.225,54.084,183.114,54.35,184.481c1.473,7.572,8.511,12.73,16.153,11.882c0.076-0.008,0.154-0.017,0.23-0.027
	c7.73-0.979,13.378-7.784,12.914-15.562C265.271,159.09,240.858,71.484,239.822,67.814z"/>
<path style="fill:#4E901E;" d="M259.443,297.334c0.076-0.008,0.154-0.017,0.23-0.027c7.73-0.979,13.378-7.784,12.914-15.562
	c-7.318-122.655-31.73-210.261-32.767-213.93c-1.404-4.978-5.307-8.861-10.292-10.241c-3.659-1.013-7.507-0.566-10.787,1.143
	c-3.028,36.333-3.164,77.74-2.097,115.861c15.289,52.986,26.471,109.992,26.643,110.875
	C244.763,293.025,251.801,298.181,259.443,297.334z"/>
<path style="fill:#6DC82A;" d="M290.396,24.928L264.305,9.463c-3.722-2.207-8.284-2.466-12.233-0.695
	c-3.949,1.771-6.789,5.351-7.617,9.598c-18.003,92.427-0.801,271.532-0.06,279.11c0.689,7.034,6.754,12.304,13.815,12.001
	c0.027-0.001,0.055-0.002,0.082-0.004c7.022-0.344,12.572-6.096,12.656-13.134c1.691-142.628,25.439-256.069,25.678-257.196
	C297.814,33.559,295.308,27.84,290.396,24.928z"/>
<path style="fill:#5EAC24;" d="M238.811,187.564c-0.403,3.223-0.776,6.401-1.123,9.533c2.232,53.869,6.354,96.754,6.708,100.38
	c0.689,7.034,6.754,12.304,13.815,12.001c0.027-0.001,0.055-0.002,0.082-0.004c7.022-0.344,12.572-6.096,12.657-13.134
	c1.691-142.628,25.439-256.069,25.678-257.196c1.186-5.584-1.32-11.304-6.231-14.215l-2.535-1.503
	c-11.835,21.121-21.889,45.192-29.985,71.878C249.377,123.314,242.963,154.355,238.811,187.564z"/>
<path style="fill:#A4E276;" d="M362.777,46.494l-22.89-32.806c-2.525-3.619-6.659-5.775-11.072-5.775c-0.014,0-0.029,0-0.044,0
	c-4.427,0.014-8.567,2.2-11.077,5.847c-16.482,23.953-30.078,53.37-40.412,87.431c-8.165,26.915-14.339,56.822-18.349,88.888
	c-6.806,54.434-5.054,95.89-4.975,97.628c0.308,6.882,5.751,12.428,12.625,12.868c0.292,0.018,0.581,0.027,0.87,0.027
	c6.513,0,12.159-4.686,13.289-11.185c15.389-88.431,36.562-145.19,51.613-177.234c15.915-33.881,28.499-47.968,29.153-48.687
	C366.007,58.859,366.476,51.796,362.777,46.494z"/>
<path style="fill:#933EC5;" d="M275.776,490.357c-51.504-8.012-90.568-46.756-90.568-93.346c0-33.8,20.563-63.466,51.517-80.27
	l-0.002-0.002c15.645-8.166,27.505-20.097,36.338-32.193h-39.538c-8.835,12.096-20.704,24.027-36.349,32.193l0.002,0.002
	c-30.953,16.803-51.517,46.47-51.517,80.27c0,52.394,49.402,94.867,110.343,94.867C262.752,491.879,269.36,491.355,275.776,490.357z
	"/>
<g>
	<path style="fill:#D5B4E8;" d="M315.91,411.951c-3.797,0-7.08-2.839-7.543-6.704c-2.758-23.074-13.282-41.949-19.31-51.146
		c-2.303-3.513-1.321-8.228,2.191-10.53c3.513-2.301,8.228-1.32,10.53,2.192c8.257,12.597,18.722,32.829,21.693,57.678
		c0.498,4.171-2.478,7.955-6.649,8.454C316.516,411.933,316.212,411.951,315.91,411.951z"/>
	<path style="fill:#D5B4E8;" d="M201.441,417.479c-3.91,0-7.233-2.997-7.57-6.963c-1.245-14.667,0.714-28.693,5.824-41.688
		c1.538-3.909,5.953-5.831,9.862-4.295c3.909,1.537,5.832,5.953,4.295,9.862c-4.247,10.799-5.869,22.519-4.824,34.835
		c0.356,4.185-2.749,7.866-6.935,8.221C201.874,417.47,201.657,417.479,201.441,417.479z"/>
	<path style="fill:#D5B4E8;" d="M268.676,268.708c0,0-4.447-7.991-12.942-7.991c-7.223,0-11.743,7.154-12.204,8
		c-0.268,0.491-0.54,0.985-0.818,1.482c-7.07,12.629-17.364,26.753-31.816,37.791l13.34,25.961l29.847-10.962l30.11,10.107
		l16.38-25.586C286.053,296.159,275.715,281.556,268.676,268.708z"/>
</g>
<path style="fill:#B87FD9;" d="M255.735,260.716c-7.223,0-11.743,7.154-12.204,8c-0.268,0.491-0.54,0.985-0.818,1.482
	c-7.07,12.629-17.364,26.753-31.816,37.791l9.896,19.258c4.92-3.898,10.249-7.421,15.932-10.506l-0.002-0.002
	c17.367-9.065,30.082-22.769,39.157-36.188c-2.743-4.06-5.16-8.095-7.278-11.971C268.012,267.595,263.621,260.716,255.735,260.716z"
	/>
<path style="fill:#D5B4E8;" d="M263.607,348.685c0-4.2-3.405-7.606-7.605-7.606c-4.2,0-7.606,3.405-7.606,7.606v105.469
	c0,4.2,3.405,7.606,7.606,7.606c4.2,0,7.605-3.405,7.605-7.606V348.685z"/>
<path d="M373.95,397.011c0-35.514-20.662-67.961-55.285-86.84c-0.12-0.069-0.24-0.135-0.364-0.198c-0.001,0-0.12-0.064-0.121-0.064
	c-10.668-5.605-20.411-13.761-29.042-24.279c7.046-39.352,15.878-75.8,26.258-108.332c1.277-4.002-0.933-8.281-4.934-9.558
	c-3.997-1.28-8.28,0.932-9.558,4.933c-9.256,29.014-17.298,61.039-23.962,95.384c-0.565-0.971-5.424-12.06-15.342-14.048
	c0.488-15.775,1.753-37.965,4.882-62.987c3.956-31.644,10.039-61.124,18.079-87.625c10.107-33.314,23.363-62.022,39.401-85.329
	c1.095-1.592,2.903-2.546,4.855-2.553c1.925,0,3.732,0.943,4.834,2.522l22.889,32.805c1.637,2.347,1.436,5.373-0.489,7.359
	c-0.056,0.058-0.111,0.116-0.164,0.175c-1.288,1.416-13.018,14.727-28.155,45.85c-1.839,3.777-0.265,8.329,3.513,10.166
	c3.78,1.837,8.329,0.264,10.165-3.513c13.957-28.694,24.849-41.274,25.677-42.211c6.847-7.177,7.664-18.306,1.927-26.529
	L346.125,9.337c-3.946-5.653-10.415-9.029-17.379-9.029c-6.921,0.023-13.395,3.441-17.316,9.142
	c-3.483,5.061-6.832,10.37-10.059,15.892c-1.734-2.792-4.134-5.199-7.097-6.955l-26.09-15.465
	c-5.844-3.465-13.03-3.873-19.224-1.092c-6.196,2.779-10.671,8.418-11.97,15.084c-1.995,10.24-3.559,21.541-4.767,33.546
	c-0.222-0.069-0.439-0.153-0.664-0.215c-7.5-2.077-15.675-0.054-21.337,5.279c-9.122,8.588-18.426,17.169-21.246,19.599
	c-1.789,1.238-3.385,2.729-4.75,4.439c-5.809,7.277-6.541,17.18-1.865,25.231c21.739,37.427,43.696,135.581,50.394,167.2
	c-1.794,2.935-3.552,5.573-5.377,8.071c-9.659,13.225-21.006,23.297-33.727,29.936c-0.098,0.052-0.196,0.105-0.291,0.16
	c-34.637,18.878-55.309,51.332-55.309,86.853c0,18.767,5.884,37.121,17.015,53.076c2.403,3.445,7.145,4.29,10.589,1.886
	c3.445-2.403,4.29-7.144,1.886-10.589c-9.341-13.391-14.279-28.735-14.279-44.374c0-29.917,17.772-57.426,47.538-73.585
	c0.025-0.014,0.051-0.027,0.076-0.042c14.733-7.73,27.781-19.287,38.786-34.352c3.264-4.47,6.309-9.275,9.58-15.119
	c0.28-0.499,2.076-5.423,6.387-5.592c3.654-0.143,6.099,3.775,6.327,4.141c5.174,9.424,9.933,15.728,10.639,16.648
	c11.018,15.1,23.974,26.627,38.5,34.259l0.037,0.019c0.021,0.011,0.042,0.023,0.064,0.034
	c29.769,16.159,47.542,43.669,47.542,73.586c0,48.117-46.087,87.262-102.737,87.262c-24.715,0-48.603-7.575-67.265-21.329
	c-3.381-2.493-8.143-1.771-10.635,1.61c-2.493,3.381-1.772,8.143,1.61,10.635c11.221,8.27,24.076,14.555,37.814,18.669
	C222.793,504.717,238.217,512,255.999,512c18.11,0,33.175-7.193,38.468-18.115C340.675,479.994,373.95,441.818,373.95,397.011z
	 M251.922,19.821c0.354-1.817,1.574-3.356,3.265-4.114c1.688-0.758,3.648-0.645,5.24,0.298l26.091,15.466
	c2.106,1.248,3.18,3.696,2.673,6.08c-0.013,0.062-1.412,6.694-3.573,18.865c-5.817,13.263-11.033,27.472-15.613,42.568
	c-8.29,27.323-14.554,57.655-18.617,90.153c-2.1,16.796-3.377,32.333-4.15,45.597C243.564,173.871,240.492,78.501,251.922,19.821z
	 M196.115,89.051c0.474-0.593,16.068-14.482,24.535-22.455c1.817-1.712,4.444-2.36,6.85-1.693c1.274,0.353,2.414,1.068,3.314,2.026
	c-2.921,40.705-2.405,87.155-0.824,127.359c-9.796-36.924-21.984-75.633-34.474-97.138
	C194.015,94.566,194.251,91.386,196.115,89.051z"/>
<path d="M326.894,124.182c-3.881-1.598-8.329,0.254-9.928,4.138c-2.662,6.467-5.297,13.273-7.834,20.231
	c-1.439,3.947,0.593,8.311,4.54,9.75c0.861,0.313,1.74,0.462,2.604,0.462c3.106,0,6.022-1.917,7.146-5.002
	c2.466-6.763,5.026-13.375,7.61-19.65C332.63,130.226,330.779,125.781,326.894,124.182z"/>
<g>
</g>
<g>
</g>
<g>
</g>
<g>
</g>
<g>
</g>
<g>
</g>
<g>
</g>
<g>
</g>
<g>
</g>
<g>
</g>
<g>
</g>
<g>
</g>
<g>
</g>
<g>
</g>
<g>
</g>
</svg>
